<svg xmlns="http://www.w3.org/2000/svg" width="34.007" height="23.381" viewBox="0 0 34.007 23.381"><path d="M1347.417,2433.345c-.922-1.64-1.923-1.942-3.962-2.057-2.035-.138-7.156-.2-11.592-.2s-9.567.057-11.6.193c-2.033.117-3.036.417-3.968,2.059-.95,1.64-1.438,4.462-1.438,9.431v.017c0,4.948.488,7.793,1.438,9.414.932,1.642,1.933,1.939,3.967,2.077,2.036.119,7.159.19,11.6.19s9.557-.071,11.595-.188c2.037-.136,3.038-.435,3.962-2.076.958-1.623,1.442-4.466,1.442-9.414v-.018C1348.862,2437.807,1348.378,2434.985,1347.417,2433.345Zm-19.809,15.814v-12.753l10.626,6.376Z" transform="translate(-1314.855 -2431.093)" fill="#fff"/></svg>